<svg width="40" height="40" viewBox="0 0 40 40" fill="none" xmlns="http://www.w3.org/2000/svg">
<path fill-rule="evenodd" clip-rule="evenodd" d="M19.9998 40C31.0455 40 39.9998 31.0457 39.9998 20C39.9998 8.9543 31.0455 0 19.9998 0C8.95406 0 -0.000244141 8.9543 -0.000244141 20C-0.000244141 31.0457 8.95406 40 19.9998 40ZM17.9306 30.9999L17.9463 21.4953H15.5715C15.2628 21.4953 15.0123 21.2358 15.0111 20.9149L14.9998 17.8512C14.9986 17.5286 15.2498 17.2664 15.5601 17.2664H17.9306V14.306C17.9306 10.8706 19.9485 9 22.8959 9H25.3144C25.6239 9 25.8748 9.26085 25.8748 9.58266V12.166C25.8748 12.4877 25.6241 12.7485 25.3148 12.7486L23.8305 12.7494C22.2276 12.7494 21.9173 13.5413 21.9173 14.7036V17.2664H25.4394C25.7749 17.2664 26.0353 17.5711 25.9958 17.9177L25.6465 20.9814C25.6131 21.2746 25.374 21.4955 25.0901 21.4955H21.933L21.9173 31L17.9306 30.9999Z" fill="black"/>
</svg>
