<svg width="1920" height="1050" viewBox="0 0 1920 1050" fill="none" xmlns="http://www.w3.org/2000/svg" xmlns:xlink="http://www.w3.org/1999/xlink">
<g clip-path="url(#clip0_59_110)">
<path d="M226.203 971C226.203 1014.63 261.572 1050 305.203 1050L1613.7 1050C1657.89 1050 1693.7 1014.18 1693.7 969.999L1693.7 860.306C1693.7 816.123 1729.52 780.305 1773.7 780.305L1840 780.305C1884.18 780.305 1920 744.488 1920 700.305L1920 450L843.521 450L1161 450C1205.18 450 1241 485.817 1241 530L1241 812C1241 856.183 1205.18 892 1161 892L305.203 892C261.572 892 226.203 927.37 226.203 971Z" fill="#00B88F"/>

</g>
<path d="M-0.297119 80C-0.297119 35.8172 35.5201 0 79.7029 0H1839.7C1883.89 0 1919.7 35.8172 1919.7 80V450H79.7029C35.5201 450 -0.297119 414.183 -0.297119 370V80Z" fill="#00B88F"/>
<mask id="mask0_59_110" style="mask-type:alpha" maskUnits="userSpaceOnUse" x="299" y="50" width="596" height="350">
<path d="M299.703 130.001C299.703 85.8175 335.52 50 379.703 50L544.501 50C577.523 50 604.292 76.7696 604.292 109.792C604.292 142.814 631.062 169.583 664.084 169.583L814.703 169.583C858.886 169.583 894.703 205.4 894.703 249.583L894.703 320C894.703 364.183 858.886 400 814.703 400L379.705 400C335.522 400 299.705 364.183 299.705 320.001L299.703 130.001Z" fill="#D9D9D9"/>
</mask>
<g mask="url(#mask0_59_110)">
<rect x="203.703" y="-98.0557" width="524.244" height="685.724" transform="rotate(-6.63111 203.703 -98.0557)" fill="url(#pattern0_59_110)"/>
<rect width="523.106" height="685.724" transform="matrix(-0.99331 0.115477 0.115477 0.99331 1244.05 -219)" fill="url(#pattern1_59_110)"/>
</g>
<defs>

<clipPath id="clip0_59_110">
<rect width="1920" height="600" fill="white" transform="translate(0 450)"/>

</clipPath>
</defs>
</svg>
