<svg width="280" height="81" viewBox="0 0 280 81" fill="none" xmlns="http://www.w3.org/2000/svg">
<path d="M7.14568 0L22.605 8.27025C27.2703 10.766 30.1853 15.6441 30.1853 20.9551L30.1853 37.8103C30.1853 32.4963 33.1036 27.616 37.7729 25.1215L56.4029 15.1688V32.4452C56.4029 37.7592 53.4846 42.6394 48.8153 45.1339L41.1755 49.2154L39.1338 50.3803C33.8998 53.0202 30.3077 58.4631 30.3077 64.7489C30.3077 72.6724 36.0152 79.2562 43.5241 80.5755L38.2216 80.1152C21.2533 78.4913 0 69.9259 0 52.7976V31.9343L22.5498 43.8606C27.142 46.2894 30.0559 51.0216 30.1854 56.2159L30.1853 40.5596C30.1808 37.4459 28.5143 34.5735 25.8193 33.0358L18.9662 29.1258L14.726 26.8575C10.0607 24.3617 7.14568 19.4836 7.14568 14.1726V0Z" fill="#00B88F"/>
<path d="M72.2024 73.6189L76.3239 75.8854C75.3193 77.3067 74.0415 78.4437 72.4904 79.2964C70.9541 80.1492 69.2848 80.5755 67.4826 80.5755C65.444 80.5755 63.5827 80.0444 61.8986 78.9822C60.2294 77.92 58.8925 76.4988 57.8879 74.7185C56.8982 72.9232 56.4033 70.941 56.4033 68.7717C56.4033 67.126 56.6914 65.5926 57.2675 64.1713C57.8436 62.7351 58.6339 61.4784 59.6385 60.4013C60.6578 59.3092 61.8396 58.4564 63.1838 57.843C64.5281 57.2297 65.961 56.923 67.4826 56.923C69.2848 56.923 70.9541 57.3493 72.4904 58.2021C74.0415 59.0548 75.3193 60.1993 76.3239 61.6355L72.2024 63.9021C71.5819 63.154 70.8581 62.5855 70.0308 62.1966C69.2036 61.7926 68.3542 61.5907 67.4826 61.5907C66.2713 61.5907 65.1707 61.9273 64.181 62.6005C63.206 63.2587 62.4304 64.1339 61.8543 65.2261C61.293 66.3032 61.0123 67.4851 61.0123 68.7717C61.0123 70.0433 61.3004 71.2252 61.8765 72.3173C62.4526 73.3945 63.2282 74.2622 64.2031 74.9205C65.1929 75.5787 66.286 75.9079 67.4826 75.9079C68.3985 75.9079 69.2701 75.6984 70.0973 75.2795C70.9246 74.8606 71.6262 74.3071 72.2024 73.6189Z" fill="black"/>
<path d="M80.3242 79.9921V57.5513H84.9332V59.93C85.7013 59.0025 86.6467 58.2694 87.7694 57.7308C88.8921 57.1923 90.1035 56.923 91.4035 56.923C92.2307 56.923 93.0506 57.0352 93.863 57.2596L92.0239 61.9721C91.4478 61.7477 90.8716 61.6355 90.2955 61.6355C89.3205 61.6355 88.4268 61.8824 87.6143 62.3761C86.8019 62.8548 86.1519 63.5056 85.6644 64.3284C85.1769 65.1513 84.9332 66.0638 84.9332 67.0662V79.9921H80.3242Z" fill="black"/>
<path d="M95.6672 71.5768V57.5513H100.276V70.4323C100.276 71.4347 100.52 72.3473 101.007 73.1701C101.495 73.9929 102.145 74.6512 102.957 75.1449C103.77 75.6236 104.664 75.863 105.639 75.863C106.628 75.863 107.522 75.6236 108.32 75.1449C109.132 74.6512 109.775 73.9929 110.248 73.1701C110.735 72.3473 110.979 71.4347 110.979 70.4323V57.5513H115.588L115.61 79.9921H111.001L110.979 77.5685C110.225 78.496 109.287 79.2291 108.165 79.7677C107.042 80.3063 105.838 80.5755 104.553 80.5755C102.913 80.5755 101.421 80.1716 100.077 79.3637C98.7325 78.5559 97.6615 77.4712 96.8638 76.1098C96.0661 74.7484 95.6672 73.2374 95.6672 71.5768Z" fill="black"/>
<path d="M120.054 79.9921V57.5513H124.663V59.93C125.431 59.0025 126.369 58.2694 127.477 57.7308C128.6 57.1923 129.811 56.923 131.111 56.923C132.692 56.923 134.147 57.3119 135.476 58.0899C136.806 58.8529 137.862 59.8702 138.645 61.1418C139.428 59.8702 140.469 58.8529 141.769 58.0899C143.084 57.3119 144.532 56.923 146.112 56.923C147.752 56.923 149.244 57.3269 150.588 58.1348C151.933 58.9426 153.004 60.0273 153.801 61.3887C154.599 62.7501 154.998 64.2611 154.998 65.9217V79.9921H150.389V67.1111C150.389 66.1237 150.152 65.2186 149.68 64.3957C149.207 63.5729 148.572 62.9072 147.774 62.3985C146.976 61.8899 146.09 61.6355 145.115 61.6355C144.14 61.6355 143.254 61.8749 142.456 62.3536C141.658 62.8324 141.023 63.4832 140.55 64.306C140.078 65.1288 139.841 66.0638 139.841 67.1111V79.9921H135.232V67.1111C135.232 66.0638 134.996 65.1288 134.523 64.306C134.051 63.4832 133.408 62.8324 132.596 62.3536C131.798 61.8749 130.911 61.6355 129.936 61.6355C128.976 61.6355 128.09 61.8899 127.277 62.3985C126.48 62.9072 125.845 63.5729 125.372 64.3957C124.899 65.2186 124.663 66.1237 124.663 67.1111V79.9921H120.054Z" fill="black"/>
<path d="M176.731 80.4185C175.564 80.3437 174.427 80.1043 173.319 79.7003C172.211 79.2964 171.236 78.7504 170.394 78.0622C169.567 77.359 168.946 76.5362 168.533 75.5937L172.455 73.8882C172.647 74.2921 172.979 74.6886 173.452 75.0776C173.939 75.4665 174.508 75.7882 175.158 76.0425C175.808 76.2819 176.487 76.4016 177.197 76.4016C177.891 76.4016 178.533 76.3043 179.124 76.1098C179.73 75.9004 180.225 75.5862 180.609 75.1673C180.993 74.7484 181.185 74.2472 181.185 73.6638C181.185 73.0055 180.963 72.4969 180.52 72.1378C180.092 71.7638 179.553 71.4795 178.903 71.2851C178.253 71.0906 177.603 70.9036 176.953 70.724C175.505 70.3949 174.176 69.9461 172.964 69.3776C171.768 68.7941 170.815 68.0536 170.106 67.156C169.397 66.2434 169.042 65.1288 169.042 63.8123C169.042 62.3761 169.426 61.1344 170.194 60.0871C170.963 59.0249 171.967 58.2096 173.208 57.6411C174.464 57.0726 175.801 56.7883 177.219 56.7883C178.991 56.7883 180.616 57.1698 182.094 57.9328C183.571 58.6958 184.701 59.743 185.484 61.0745L181.828 63.2737C181.606 62.8249 181.274 62.421 180.831 62.0619C180.387 61.7029 179.885 61.4186 179.324 61.2092C178.762 60.9848 178.179 60.8576 177.573 60.8277C176.82 60.7977 176.118 60.8875 175.468 61.097C174.833 61.2914 174.323 61.6056 173.939 62.0395C173.555 62.4733 173.363 63.0269 173.363 63.7001C173.363 64.3583 173.592 64.852 174.05 65.1812C174.508 65.4953 175.084 65.7497 175.778 65.9442C176.487 66.1386 177.211 66.3556 177.95 66.5949C179.265 67.0138 180.498 67.53 181.65 68.1434C182.803 68.7418 183.733 69.4823 184.442 70.365C185.151 71.2477 185.491 72.3248 185.462 73.5965C185.462 75.0027 185.041 76.237 184.199 77.2992C183.371 78.3614 182.293 79.1693 180.963 79.7228C179.634 80.2763 178.223 80.5082 176.731 80.4185Z" fill="black"/>
<path d="M209.199 65.9217V79.9921H204.59V67.0662C204.59 66.0638 204.346 65.1513 203.858 64.3284C203.386 63.5056 202.743 62.8548 201.931 62.3761C201.133 61.8824 200.232 61.6355 199.227 61.6355C198.252 61.6355 197.359 61.8824 196.546 62.3761C195.734 62.8548 195.084 63.5056 194.596 64.3284C194.109 65.1513 193.865 66.0638 193.865 67.0662V79.9921H189.256V57.5513H193.865V59.93C194.633 59.0025 195.579 58.2694 196.701 57.7308C197.824 57.1923 199.035 56.923 200.335 56.923C201.975 56.923 203.467 57.3269 204.811 58.1348C206.156 58.9426 207.219 60.0273 208.002 61.3887C208.8 62.7501 209.199 64.2611 209.199 65.9217Z" fill="black"/>
<path d="M230.428 57.5513H235.037V79.9921H230.406L230.229 76.7382C229.579 77.8901 228.7 78.8177 227.592 79.5208C226.484 80.224 225.177 80.5755 223.67 80.5755C222.045 80.5755 220.516 80.2688 219.083 79.6555C217.65 79.0271 216.387 78.1594 215.294 77.0523C214.216 75.9453 213.374 74.6736 212.768 73.2374C212.162 71.7862 211.859 70.2303 211.859 68.5697C211.859 66.969 212.155 65.4654 212.746 64.0591C213.337 62.6379 214.157 61.3962 215.205 60.334C216.254 59.2718 217.466 58.4415 218.839 57.843C220.228 57.2297 221.713 56.923 223.293 56.923C224.903 56.923 226.322 57.297 227.548 58.045C228.789 58.7781 229.815 59.7206 230.628 60.8725L230.428 57.5513ZM223.559 76.0649C224.859 76.0649 225.997 75.7433 226.972 75.1C227.947 74.4417 228.7 73.5591 229.232 72.452C229.778 71.3449 230.052 70.1181 230.052 68.7717C230.052 67.4103 229.778 66.1761 229.232 65.069C228.685 63.9619 227.924 63.0867 226.949 62.4434C225.989 61.7851 224.859 61.456 223.559 61.456C222.274 61.456 221.1 61.7851 220.036 62.4434C218.972 63.1017 218.13 63.9843 217.51 65.0914C216.889 66.1985 216.579 67.4253 216.579 68.7717C216.579 70.1331 216.897 71.3673 217.532 72.4744C218.182 73.5665 219.031 74.4417 220.08 75.1C221.144 75.7433 222.303 76.0649 223.559 76.0649Z" fill="black"/>
<path d="M253.496 73.6189L257.617 75.8854C256.613 77.3067 255.335 78.4437 253.784 79.2964C252.247 80.1492 250.578 80.5755 248.776 80.5755C246.737 80.5755 244.876 80.0444 243.192 78.9822C241.523 77.92 240.186 76.4988 239.181 74.7185C238.192 72.9232 237.697 70.941 237.697 68.7717C237.697 67.126 237.985 65.5926 238.561 64.1713C239.137 62.7351 239.927 61.4784 240.932 60.4013C241.951 59.3092 243.133 58.4564 244.477 57.843C245.821 57.2297 247.254 56.923 248.776 56.923C250.578 56.923 252.247 57.3493 253.784 58.2021C255.335 59.0548 256.613 60.1993 257.617 61.6355L253.496 63.9021C252.875 63.154 252.151 62.5855 251.324 62.1966C250.497 61.7926 249.647 61.5907 248.776 61.5907C247.565 61.5907 246.464 61.9273 245.474 62.6005C244.499 63.2587 243.724 64.1339 243.148 65.2261C242.586 66.3032 242.306 67.4851 242.306 68.7717C242.306 70.0433 242.594 71.2252 243.17 72.3173C243.746 73.3945 244.521 74.2622 245.496 74.9205C246.486 75.5787 247.579 75.9079 248.776 75.9079C249.692 75.9079 250.563 75.6984 251.391 75.2795C252.218 74.8606 252.92 74.3071 253.496 73.6189Z" fill="black"/>
<path d="M280 79.9921H274.682L269.231 70.4772L265.664 74.7858V79.9921H261.055V46.3309H265.664V67.5375L273.907 57.5513H279.934L272.378 66.6847L280 79.9921Z" fill="black"/>
</svg>
