<svg width="40" height="40" viewBox="0 0 40 40" fill="none" xmlns="http://www.w3.org/2000/svg">
<path fill-rule="evenodd" clip-rule="evenodd" d="M19.9998 40C31.0455 40 39.9998 31.0457 39.9998 20C39.9998 8.9543 31.0455 0 19.9998 0C8.95406 0 -0.000244141 8.9543 -0.000244141 20C-0.000244141 31.0457 8.95406 40 19.9998 40ZM29.9998 15.9581C29.9997 12.6728 27.3269 10 24.0416 10H15.9579C12.6725 10 9.99976 12.6728 9.99976 15.9581V24.0419C9.99976 27.3272 12.6725 30 15.9579 30H24.0416C27.327 30 29.9998 27.3272 29.9998 24.0419V15.9581ZM27.9878 24.0419C27.9878 26.2212 26.221 27.988 24.0416 27.988H15.9579C13.7785 27.988 12.0118 26.2212 12.0118 24.0419V15.9581C12.0118 13.7787 13.7785 12.012 15.9579 12.012H24.0416C26.221 12.012 27.9878 13.7787 27.9878 15.9581V24.0419ZM20 14.8263C17.1478 14.8263 14.8273 17.1468 14.8273 19.9992C14.8273 22.8515 17.1478 25.1722 20 25.1722C22.8522 25.1722 25.1727 22.8516 25.1727 19.9992C25.1727 17.1468 22.8522 14.8263 20 14.8263ZM20 23.1601C18.2544 23.1601 16.8393 21.7449 16.8393 19.9992C16.8393 18.2535 18.2544 16.8384 20 16.8384C21.7456 16.8384 23.1607 18.2535 23.1607 19.9992C23.1607 21.7449 21.7456 23.1601 20 23.1601ZM26.4217 14.8661C26.4217 15.5504 25.8668 16.1052 25.1823 16.1052C24.4977 16.1052 23.9428 15.5504 23.9428 14.8661C23.9428 14.1817 24.4977 13.627 25.1823 13.627C25.8668 13.627 26.4217 14.1817 26.4217 14.8661Z" fill="black"/>
</svg>
