<svg width="388" height="421" viewBox="0 0 388 421" fill="none" xmlns="http://www.w3.org/2000/svg" xmlns:xlink="http://www.w3.org/1999/xlink">
<mask id="mask0_349_36" style="mask-type:alpha" maskUnits="userSpaceOnUse" x="0" y="0" width="388" height="421">
<path d="M348 421H40C17.9086 421 0 403.091 0 381V347C0 324.909 17.9086 307 40 307H103.5C125.591 307 143.5 289.091 143.5 267V230.5C143.5 208.409 125.591 190.5 103.5 190.5H40C17.9086 190.5 0 172.591 0 150.5V40C0 17.9086 17.9086 0 40 0H348C370.091 0 388 17.9086 388 40V381C388 403.091 370.091 421 348 421Z" fill="#72BDA7"/>
</mask>
<g mask="url(#mask0_349_36)">
<rect x="-166.5" y="-107.5" width="721" height="540" fill="url(#pattern0_349_36)"/>
<g filter="url(#filter0_b_349_36)">
<path d="M183.225 22L239.961 51.8682C257.083 60.8818 267.781 78.4989 267.781 97.6799L267.781 158.553C267.781 139.361 278.491 121.736 295.628 112.727L364 76.7824V139.176C364 158.368 353.29 175.993 336.153 185.002L308.115 199.742L300.622 203.949C281.413 213.484 268.23 233.14 268.23 255.842C268.23 284.458 289.177 308.235 316.734 313L297.274 311.337C235 305.473 157 274.539 157 212.679V137.331L239.758 180.403C256.612 189.175 267.306 206.265 267.781 225.025L267.781 168.482C267.764 157.237 261.648 146.863 251.757 141.31L226.606 127.188L211.045 118.996C193.923 109.983 183.225 92.3655 183.225 73.1845V22Z" fill="url(#paint0_linear_349_36)" fill-opacity="0.5"/>
</g>
</g>
<defs>
<pattern id="pattern0_349_36" patternContentUnits="objectBoundingBox" width="1" height="1">
<use xlink:href="#image0_349_36" transform="matrix(0.000714286 0 0 0.000953704 0 -0.000694444)"/>
</pattern>
<filter id="filter0_b_349_36" x="127" y="-8" width="267" height="351" filterUnits="userSpaceOnUse" color-interpolation-filters="sRGB">
<feFlood flood-opacity="0" result="BackgroundImageFix"/>
<feGaussianBlur in="BackgroundImageFix" stdDeviation="15"/>
<feComposite in2="SourceAlpha" operator="in" result="effect1_backgroundBlur_349_36"/>
<feBlend mode="normal" in="SourceGraphic" in2="effect1_backgroundBlur_349_36" result="shape"/>
</filter>
<linearGradient id="paint0_linear_349_36" x1="260.5" y1="22" x2="260.5" y2="313" gradientUnits="userSpaceOnUse">
<stop stop-color="white"/>
<stop offset="1" stop-color="white" stop-opacity="0"/>
</linearGradient>
<image id="image0_349_36" width="1400" height="1050" xlink:href=""/>
</defs>
</svg>
