<svg width="167" height="51" viewBox="0 0 167 51" fill="none" xmlns="http://www.w3.org/2000/svg">
<path d="M35.0199 42.7145L37.6376 44.0812C36.9996 44.9381 36.188 45.6237 35.2029 46.1379C34.2271 46.6521 33.1669 46.9092 32.0222 46.9092C30.7274 46.9092 29.5452 46.5889 28.4756 45.9485C27.4154 45.308 26.5663 44.451 25.9283 43.3775C25.2997 42.2951 24.9854 41.0998 24.9854 39.7918C24.9854 38.7995 25.1683 37.8749 25.5342 37.0179C25.9001 36.152 26.4021 35.3942 27.0401 34.7447C27.6875 34.0862 28.4381 33.572 29.2919 33.2022C30.1457 32.8323 31.0558 32.6474 32.0222 32.6474C33.1669 32.6474 34.2271 32.9045 35.2029 33.4187C36.188 33.9329 36.9996 34.6229 37.6376 35.4889L35.0199 36.8556C34.6258 36.4045 34.1661 36.0617 33.6407 35.8272C33.1153 35.5836 32.5758 35.4619 32.0222 35.4619C31.2528 35.4619 30.5538 35.6648 29.9252 36.0708C29.306 36.4677 28.8134 36.9954 28.4475 37.6539C28.0909 38.3034 27.9127 39.016 27.9127 39.7918C27.9127 40.5586 28.0956 41.2712 28.4616 41.9297C28.8275 42.5792 29.3201 43.1024 29.9393 43.4993C30.5679 43.8962 31.2622 44.0947 32.0222 44.0947C32.6039 44.0947 33.1575 43.9684 33.6829 43.7158C34.2083 43.4632 34.654 43.1295 35.0199 42.7145Z" fill="white"/>
<path d="M40.1784 46.5573V33.0263H43.1057V34.4606C43.5936 33.9013 44.1941 33.4593 44.9071 33.1345C45.6202 32.8098 46.3895 32.6474 47.2152 32.6474C47.7406 32.6474 48.2614 32.7151 48.7774 32.8504L47.6093 35.6919C47.2434 35.5566 46.8774 35.4889 46.5115 35.4889C45.8923 35.4889 45.3246 35.6378 44.8086 35.9355C44.2926 36.2241 43.8797 36.6165 43.5701 37.1127C43.2605 37.6088 43.1057 38.1591 43.1057 38.7635V46.5573H40.1784Z" fill="white"/>
<path d="M49.9233 41.4832V33.0263H52.8506V40.7931C52.8506 41.3975 53.0054 41.9478 53.3151 42.4439C53.6247 42.94 54.0375 43.337 54.5535 43.6346C55.0696 43.9233 55.6372 44.0676 56.2565 44.0676C56.8851 44.0676 57.4527 43.9233 57.9594 43.6346C58.4754 43.337 58.8836 42.94 59.1838 42.4439C59.4934 41.9478 59.6482 41.3975 59.6482 40.7931V33.0263H62.5756L62.5896 46.5573H59.6623L59.6482 45.096C59.1697 45.6553 58.5739 46.0973 57.8609 46.422C57.1478 46.7468 56.3831 46.9092 55.5669 46.9092C54.5254 46.9092 53.5778 46.6656 52.724 46.1785C51.8702 45.6914 51.1899 45.0374 50.6833 44.2165C50.1766 43.3956 49.9233 42.4845 49.9233 41.4832Z" fill="white"/>
<path d="M65.4121 46.5573V33.0263H68.3394V34.4606C68.8273 33.9013 69.4231 33.4593 70.1268 33.1345C70.8398 32.8098 71.6092 32.6474 72.4348 32.6474C73.4388 32.6474 74.3629 32.8819 75.2074 33.351C76.0518 33.8111 76.7226 34.4245 77.2199 35.1912C77.7172 34.4245 78.3786 33.8111 79.2043 33.351C80.0393 32.8819 80.9588 32.6474 81.9627 32.6474C83.0042 32.6474 83.9518 32.891 84.8056 33.3781C85.6594 33.8652 86.3397 34.5192 86.8463 35.3401C87.353 36.161 87.6063 37.0721 87.6063 38.0734V46.5573H84.679V38.7905C84.679 38.1951 84.5288 37.6494 84.2286 37.1533C83.9284 36.6571 83.5249 36.2557 83.0183 35.949C82.5116 35.6423 81.9487 35.4889 81.3294 35.4889C80.7102 35.4889 80.1472 35.6333 79.6406 35.9219C79.1339 36.2106 78.7305 36.603 78.4302 37.0991C78.13 37.5953 77.9799 38.1591 77.9799 38.7905V46.5573H75.0526V38.7905C75.0526 38.1591 74.9024 37.5953 74.6022 37.0991C74.302 36.603 73.8938 36.2106 73.3778 35.9219C72.8711 35.6333 72.3082 35.4889 71.6889 35.4889C71.0791 35.4889 70.5161 35.6423 70.0001 35.949C69.4934 36.2557 69.09 36.6571 68.7898 37.1533C68.4895 37.6494 68.3394 38.1951 68.3394 38.7905V46.5573H65.4121Z" fill="white"/>
<path d="M101.41 46.8144C100.669 46.7693 99.9463 46.625 99.2426 46.3814C98.5389 46.1379 97.9197 45.8086 97.3849 45.3937C96.8595 44.9697 96.4654 44.4736 96.2027 43.9053L98.6937 42.8769C98.8157 43.1205 99.0268 43.3595 99.3271 43.594C99.6367 43.8286 99.9979 44.0225 100.411 44.1759C100.824 44.3202 101.255 44.3924 101.706 44.3924C102.146 44.3924 102.555 44.3337 102.93 44.2165C103.315 44.0902 103.629 43.9007 103.873 43.6482C104.117 43.3956 104.239 43.0934 104.239 42.7416C104.239 42.3447 104.098 42.038 103.817 41.8215C103.544 41.596 103.202 41.4246 102.789 41.3073C102.376 41.19 101.964 41.0773 101.551 40.969C100.631 40.7706 99.7868 40.4999 99.0174 40.1572C98.2574 39.8053 97.6523 39.3588 97.2019 38.8176C96.7516 38.2673 96.5264 37.5953 96.5264 36.8014C96.5264 35.9355 96.7703 35.1867 97.2582 34.5553C97.7461 33.9148 98.3841 33.4232 99.1722 33.0804C99.9698 32.7376 100.819 32.5662 101.72 32.5662C102.845 32.5662 103.878 32.7962 104.816 33.2563C105.754 33.7164 106.472 34.3478 106.969 35.1507L104.647 36.4767C104.506 36.2061 104.295 35.9625 104.014 35.746C103.732 35.5295 103.413 35.3581 103.057 35.2318C102.7 35.0965 102.329 35.0199 101.945 35.0018C101.466 34.9838 101.021 35.0379 100.608 35.1642C100.204 35.2815 99.8806 35.4709 99.6367 35.7325C99.3927 35.9941 99.2708 36.3279 99.2708 36.7338C99.2708 37.1307 99.4162 37.4284 99.707 37.6268C99.9979 37.8163 100.364 37.9696 100.805 38.0869C101.255 38.2042 101.715 38.335 102.184 38.4793C103.019 38.7319 103.802 39.0431 104.534 39.4129C105.266 39.7738 105.857 40.2203 106.308 40.7525C106.758 41.2847 106.974 41.9342 106.955 42.701C106.955 43.5489 106.688 44.2931 106.153 44.9336C105.627 45.5741 104.942 46.0612 104.098 46.395C103.254 46.7287 102.358 46.8686 101.41 46.8144Z" fill="white"/>
<path d="M122.031 38.0734V46.5573H119.104V38.7635C119.104 38.1591 118.949 37.6088 118.639 37.1127C118.339 36.6165 117.931 36.2241 117.415 35.9355C116.908 35.6378 116.336 35.4889 115.698 35.4889C115.079 35.4889 114.511 35.6378 113.995 35.9355C113.479 36.2241 113.066 36.6165 112.757 37.1127C112.447 37.6088 112.292 38.1591 112.292 38.7635V46.5573H109.365V33.0263H112.292V34.4606C112.78 33.9013 113.381 33.4593 114.094 33.1345C114.807 32.8098 115.576 32.6474 116.402 32.6474C117.443 32.6474 118.391 32.891 119.245 33.3781C120.098 33.8652 120.774 34.5192 121.271 35.3401C121.778 36.161 122.031 37.0721 122.031 38.0734Z" fill="white"/>
<path d="M135.515 33.0263H138.442V46.5573H135.501L135.388 44.5953C134.975 45.2899 134.417 45.8492 133.714 46.2732C133.01 46.6972 132.179 46.9092 131.222 46.9092C130.19 46.9092 129.219 46.7242 128.309 46.3544C127.399 45.9755 126.597 45.4523 125.903 44.7848C125.218 44.1172 124.683 43.3505 124.298 42.4845C123.914 41.6095 123.721 40.6713 123.721 39.67C123.721 38.7048 123.909 37.7982 124.284 36.9503C124.659 36.0933 125.18 35.3446 125.846 34.7041C126.512 34.0637 127.282 33.563 128.154 33.2022C129.036 32.8323 129.979 32.6474 130.983 32.6474C132.006 32.6474 132.907 32.8729 133.685 33.324C134.473 33.766 135.126 34.3343 135.642 35.0289L135.515 33.0263ZM131.152 44.1894C131.978 44.1894 132.7 43.9955 133.319 43.6076C133.939 43.2107 134.417 42.6784 134.755 42.0109C135.102 41.3434 135.276 40.6037 135.276 39.7918C135.276 38.9709 135.102 38.2267 134.755 37.5592C134.408 36.8917 133.925 36.3639 133.305 35.9761C132.696 35.5791 131.978 35.3807 131.152 35.3807C130.336 35.3807 129.59 35.5791 128.914 35.9761C128.239 36.373 127.704 36.9052 127.31 37.5727C126.916 38.2402 126.719 38.9799 126.719 39.7918C126.719 40.6127 126.921 41.3569 127.324 42.0244C127.737 42.683 128.276 43.2107 128.943 43.6076C129.618 43.9955 130.355 44.1894 131.152 44.1894Z" fill="white"/>
<path d="M150.166 42.7145L152.784 44.0812C152.146 44.9381 151.334 45.6237 150.349 46.1379C149.373 46.6521 148.313 46.9092 147.168 46.9092C145.873 46.9092 144.691 46.5889 143.622 45.9485C142.561 45.308 141.712 44.451 141.074 43.3775C140.446 42.2951 140.131 41.0998 140.131 39.7918C140.131 38.7995 140.314 37.8749 140.68 37.0179C141.046 36.152 141.548 35.3942 142.186 34.7447C142.833 34.0862 143.584 33.572 144.438 33.2022C145.292 32.8323 146.202 32.6474 147.168 32.6474C148.313 32.6474 149.373 32.9045 150.349 33.4187C151.334 33.9329 152.146 34.6229 152.784 35.4889L150.166 36.8556C149.772 36.4045 149.312 36.0617 148.787 35.8272C148.261 35.5836 147.722 35.4619 147.168 35.4619C146.399 35.4619 145.7 35.6648 145.071 36.0708C144.452 36.4677 143.959 36.9954 143.593 37.6539C143.237 38.3034 143.059 39.016 143.059 39.7918C143.059 40.5586 143.242 41.2712 143.608 41.9297C143.973 42.5792 144.466 43.1024 145.085 43.4993C145.714 43.8962 146.408 44.0947 147.168 44.0947C147.75 44.0947 148.303 43.9684 148.829 43.7158C149.354 43.4632 149.8 43.1295 150.166 42.7145Z" fill="white"/>
<path d="M167 46.5573H163.622L160.16 40.8202L157.894 43.4181V46.5573H154.967V26.2607H157.894V39.0476L163.13 33.0263H166.958L162.159 38.5334L167 46.5573Z" fill="white"/>
<path d="M4.6236 0L14.6265 5.21686C17.6452 6.79119 19.5314 9.86825 19.5314 13.2185L19.5314 23.8506C19.5314 20.4986 21.4196 17.4201 24.4409 15.8466L36.4954 9.56844V20.4663C36.4954 23.8184 34.6071 26.8969 31.5859 28.4704L26.6425 31.0449L25.3214 31.7798C21.9348 33.445 19.6106 36.8784 19.6106 40.8435C19.6106 45.8416 23.3035 49.9947 28.1622 50.8269L24.7312 50.5365C13.7519 49.5121 0 44.1091 0 33.3046V20.1441L14.5908 27.6672C17.5622 29.1992 19.4476 32.1843 19.5314 35.4609L19.5314 25.5849C19.5285 23.6208 18.4502 21.8089 16.7063 20.8389L12.272 18.3725L9.52846 16.9416C6.50979 15.3673 4.6236 12.2902 4.6236 8.94003V0Z" fill="white"/>
</svg>
