<svg width="1920" height="1050" viewBox="0 0 1920 1050" fill="none" xmlns="http://www.w3.org/2000/svg">
<path d="M80 0C35.8171 0 0 35.8171 0 80V370C0 414.183 35.8171 450 80 450H1161C1205.18 450 1241 485.817 1241 530L1241 812C1241 856.183 1205.18 892 1161 892H305.203C261.573 892 226.203 927.37 226.203 971C226.203 1014.63 261.572 1050 305.203 1050H1613.7C1657.89 1050 1693.7 1014.18 1693.7 970L1693.7 860.306C1693.7 816.123 1729.52 780.305 1773.7 780.306H1840C1884.18 780.306 1920 744.488 1920 700.306L1920 80C1920 35.8171 1884.18 0 1840 0H80Z" fill="#00B88F"/>
</svg>
