<svg width="1320" height="311" viewBox="0 0 1320 311" fill="none" xmlns="http://www.w3.org/2000/svg">
<g filter="url(#filter0_b_243_1912)">
<path d="M0.000629 80.0007C0.000281614 35.8176 35.8176 0 80.0006 0H431C475.183 0 511 35.8172 511 80V138C511 182.183 546.817 218 591 218H1273.5C1299.18 218 1320 238.819 1320 264.5C1320 290.181 1299.18 311 1273.5 311H80.0019C35.8194 311 0.00216361 275.183 0.00181623 231.001L0.000629 80.0007Z" fill="#D9D9D9" fill-opacity="0.01"/>
<path d="M0.250629 80.0007C0.250283 35.9557 35.9557 0.25 80.0006 0.25H431C475.045 0.25 510.75 35.9553 510.75 80V138C510.75 182.321 546.679 218.25 591 218.25H1273.5C1299.04 218.25 1319.75 238.957 1319.75 264.5C1319.75 290.043 1299.04 310.75 1273.5 310.75H80.0019C35.9574 310.75 0.252163 275.045 0.251816 231.001L0.250629 80.0007Z" stroke="url(#paint0_linear_243_1912)" stroke-width="0.5"/>
</g>
<defs>
<filter id="filter0_b_243_1912" x="-24.9993" y="-25" width="1370" height="361" filterUnits="userSpaceOnUse" color-interpolation-filters="sRGB">
<feFlood flood-opacity="0" result="BackgroundImageFix"/>
<feGaussianBlur in="BackgroundImageFix" stdDeviation="12.5"/>
<feComposite in2="SourceAlpha" operator="in" result="effect1_backgroundBlur_243_1912"/>
<feBlend mode="normal" in="SourceGraphic" in2="effect1_backgroundBlur_243_1912" result="shape"/>
</filter>
<linearGradient id="paint0_linear_243_1912" x1="532" y1="128.009" x2="1372.83" y2="385.165" gradientUnits="userSpaceOnUse">
<stop stop-color="white"/>
<stop offset="1" stop-color="white" stop-opacity="0"/>
</linearGradient>
</defs>
</svg>
