<svg width="1920" height="920" viewBox="0 0 1920 920" fill="none" xmlns="http://www.w3.org/2000/svg">
<g filter="url(#filter0_b_239_1634)">
<mask id="path-1-inside-1_239_1634" fill="white">
<path fill-rule="evenodd" clip-rule="evenodd" d="M1629.15 -5H-40V995C-40 1039.18 -4.18274 1075 40 1075H1880C1919.96 1075 1953.07 1045.71 1959.04 1007.43C1639.84 948.465 1306 784.036 1306 493.372V85.8185L1775.36 318.794C1870.95 366.238 1931.6 458.679 1934.3 560.148L1934.29 254.31C1934.2 193.486 1899.51 137.375 1843.42 107.338L1700.77 30.9568L1629.15 -5ZM1960 842.1V611.572C1945.05 647.255 1936.84 686.141 1936.84 726.836C1936.84 767.531 1945.05 806.416 1960 842.1ZM1960 86.4776V-5H1934.29L1934.29 200.604C1934.29 160.573 1943.33 121.802 1960 86.4776Z"/>
</mask>
<path fill-rule="evenodd" clip-rule="evenodd" d="M1629.15 -5H-40V995C-40 1039.18 -4.18274 1075 40 1075H1880C1919.96 1075 1953.07 1045.71 1959.04 1007.43C1639.84 948.465 1306 784.036 1306 493.372V85.8185L1775.36 318.794C1870.95 366.238 1931.6 458.679 1934.3 560.148L1934.29 254.31C1934.2 193.486 1899.51 137.375 1843.42 107.338L1700.77 30.9568L1629.15 -5ZM1960 842.1V611.572C1945.05 647.255 1936.84 686.141 1936.84 726.836C1936.84 767.531 1945.05 806.416 1960 842.1ZM1960 86.4776V-5H1934.29L1934.29 200.604C1934.29 160.573 1943.33 121.802 1960 86.4776Z" fill="#87CC90" fill-opacity="0.2"/>
<path d="M-40 -5V-6H-41V-5H-40ZM1629.15 -5L1629.6 -5.89369L1629.39 -6H1629.15V-5ZM1959.04 1007.43L1960.03 1007.58L1960.18 1006.62L1959.22 1006.44L1959.04 1007.43ZM1306 85.8185L1306.44 84.9228L1305 84.2057V85.8185H1306ZM1775.36 318.794L1774.92 319.69L1775.36 318.794ZM1934.3 560.148L1933.3 560.174L1935.3 560.148H1934.3ZM1934.29 254.31H1935.29V254.308L1934.29 254.31ZM1843.42 107.338L1842.94 108.219L1843.42 107.338ZM1700.77 30.9568L1701.24 30.0752L1701.23 30.069L1701.22 30.0631L1700.77 30.9568ZM1960 611.572H1961L1959.08 611.186L1960 611.572ZM1960 842.1L1959.08 842.486L1961 842.1H1960ZM1960 -5H1961V-6H1960V-5ZM1960 86.4776L1960.9 86.9044L1961 86.7017V86.4776H1960ZM1934.29 -5V-6H1933.29V-5L1934.29 -5ZM-40 -4H1629.15V-6H-40V-4ZM-39 995V-5H-41V995H-39ZM40 1074C-3.63045 1074 -39 1038.63 -39 995H-41C-41 1039.73 -4.73502 1076 40 1076V1074ZM1880 1074H40V1076H1880V1074ZM1958.05 1007.27C1952.16 1045.08 1919.46 1074 1880 1074V1076C1920.46 1076 1953.98 1046.34 1960.03 1007.58L1958.05 1007.27ZM1959.22 1006.44C1799.71 976.979 1636.59 921.168 1513.39 836.464C1390.19 751.765 1307 638.262 1307 493.372H1305C1305 639.146 1388.73 753.189 1512.25 838.112C1635.77 923.028 1799.18 978.914 1958.86 1008.41L1959.22 1006.44ZM1307 493.372V85.8185H1305V493.372H1307ZM1305.56 86.7142L1774.92 319.69L1775.81 317.898L1306.44 84.9228L1305.56 86.7142ZM1774.92 319.69C1870.19 366.979 1930.61 459.097 1933.3 560.174L1935.29 560.121C1932.59 458.261 1871.7 365.498 1775.81 317.898L1774.92 319.69ZM1935.3 560.148L1935.29 254.31H1933.29L1933.3 560.148H1935.3ZM1935.29 254.308C1935.2 193.095 1900.29 136.657 1843.89 106.456L1842.94 108.219C1898.73 138.093 1933.2 193.876 1933.29 254.311L1935.29 254.308ZM1843.89 106.456L1701.24 30.0752L1700.3 31.8384L1842.94 108.219L1843.89 106.456ZM1701.22 30.0631L1629.6 -5.89369L1628.71 -4.10631L1700.32 31.8505L1701.22 30.0631ZM1959 611.572V842.1H1961V611.572H1959ZM1959.08 611.186C1944.08 646.988 1935.84 686.005 1935.84 726.836H1937.84C1937.84 686.277 1946.03 647.522 1960.92 611.958L1959.08 611.186ZM1935.84 726.836C1935.84 767.667 1944.08 806.683 1959.08 842.486L1960.92 841.713C1946.03 806.149 1937.84 767.395 1937.84 726.836H1935.84ZM1959 -5V86.4776H1961V-5H1959ZM1934.29 -4H1960V-6H1934.29V-4ZM1933.29 -5L1933.29 200.604H1935.29L1935.29 -5L1933.29 -5ZM1935.29 200.604C1935.29 160.724 1944.29 122.099 1960.9 86.9044L1959.1 86.0507C1942.36 121.505 1933.29 160.421 1933.29 200.604H1935.29Z" fill="url(#paint0_linear_239_1634)" mask="url(#path-1-inside-1_239_1634)"/>
</g>
<defs>
<filter id="filter0_b_239_1634" x="-90" y="-55" width="2100" height="1180" filterUnits="userSpaceOnUse" color-interpolation-filters="sRGB">
<feFlood flood-opacity="0" result="BackgroundImageFix"/>
<feGaussianBlur in="BackgroundImageFix" stdDeviation="25"/>
<feComposite in2="SourceAlpha" operator="in" result="effect1_backgroundBlur_239_1634"/>
<feBlend mode="normal" in="SourceGraphic" in2="effect1_backgroundBlur_239_1634" result="shape"/>
</filter>
<linearGradient id="paint0_linear_239_1634" x1="935" y1="139" x2="1859.73" y2="1182.14" gradientUnits="userSpaceOnUse">
<stop stop-color="white"/>
<stop offset="1" stop-color="white" stop-opacity="0.14"/>
</linearGradient>
</defs>
</svg>
