<svg width="1320" height="435" viewBox="0 0 1320 435" fill="none" xmlns="http://www.w3.org/2000/svg">
<path d="M79.25 149.121C120.257 149.121 153.5 115.878 153.5 74.8711C153.5 33.864 186.743 0.621094 227.75 0.621094L1070.56 0.621094C1108.91 0.621094 1140 31.7102 1140 70.0605C1140 108.411 1171.09 139.5 1209.44 139.5H1240C1284.18 139.5 1320 175.317 1320 219.5V237.5C1320 281.683 1284.18 317.5 1240 317.5H1198.5C1166.19 317.5 1140 343.691 1140 376C1140 408.309 1113.81 434.5 1081.5 434.5H629C596.691 434.5 570.5 408.309 570.5 376C570.5 343.691 544.309 317.5 512 317.5H80C35.8172 317.5 0 281.683 0 237.5V225.871C0 183.483 34.3621 149.121 76.75 149.121H79.25Z" fill="#00B88F"/>
</svg>
