<svg width="388" height="419" viewBox="0 0 388 419" fill="none" xmlns="http://www.w3.org/2000/svg">
<path d="M387.999 104.5C387.999 82.4085 370.09 64.5 347.999 64.5H333.749C315.938 64.5 301.499 50.0612 301.499 32.25C301.499 14.4388 287.06 1.46149e-06 269.249 3.26432e-06L39.999 2.64688e-05C17.9076 2.87049e-05 -0.00100708 17.9086 -0.00100708 40V169.499V237L-0.000427246 281.432C-0.000183105 299.695 14.805 314.5 33.068 314.5C51.3311 314.5 66.1364 329.305 66.1364 347.568V379C66.1364 401.091 84.045 419 106.136 419H291.5C308.345 419 322 405.345 322 388.5C322 371.655 335.655 358 352.5 358H355C373.225 358 388 343.225 388 325L387.999 104.5Z" fill="#00B88F"/>
</svg>
