<svg width="350.88" height="238.82" viewBox="0 0 430 294" fill="none" xmlns="http://www.w3.org/2000/svg">
<path d="M418 292L418 141L425 141L425 292L418 292Z" stroke="url(#paint0_linear_7_852)"/>
<path d="M294 292L294 258L303 258L303 292L294 292Z" stroke="url(#paint1_linear_7_852)"/>
<path d="M291 255L291 240L297 240L297 249L291 255Z" stroke="url(#paint2_linear_7_852)"/>
<path d="M291 175L291 141L297 141L297 171L293 171L293 175L291 175Z" stroke="url(#paint3_linear_7_852)"/>
<path d="M17.6599 269.926L20.7939 267.403C21.6543 266.71 22.9133 266.846 23.606 267.707L26.6188 271.449C27.3115 272.309 27.1756 273.568 26.3152 274.261L23.1811 276.784C22.3208 277.477 21.0618 277.341 20.3691 276.481L17.3562 272.738C16.6635 271.878 16.7995 270.619 17.6599 269.926Z" stroke="url(#paint4_linear_7_852)"/>
<path d="M25 269.362L316.097 35L319.314 38.996L28.2172 273.358L25 269.362Z" stroke="url(#paint5_linear_7_852)"/>
<path d="M21.8542 265.479L313.097 31L316.314 34.996L25.0714 269.475L21.8542 265.479Z" stroke="url(#paint6_linear_7_852)"/>
<path d="M145.611 261.481L278.481 128.61L276.871 127L144 259.87L145.611 261.481Z" fill="#F0F9F5" stroke="url(#paint7_linear_7_852)"/>
<path d="M126.595 224.653L278.39 75.6251L276.794 74L125 223.028L126.595 224.653Z" fill="#F0F9F5" stroke="url(#paint8_linear_7_852)"/>
<path d="M279 101L429 101L429 99L279 99L279 101Z" fill="#F0F9F5" stroke="url(#paint9_linear_7_852)"/>
<path d="M297 148L388 148L388 141L297 141L297 148Z" fill="#F0F9F5" stroke="url(#paint10_linear_7_852)"/>
<path d="M388 141L388 193L340 193L340 169L297 169L297 141L388 141Z" fill="#F0F9F5" stroke="url(#paint11_linear_7_852)"/>
<path d="M279 75L429 75L429 73L279 73L279 75Z" stroke="url(#paint12_linear_7_852)"/>
<path d="M292 73L391 73L391 71L292 71L292 73Z" stroke="url(#paint13_linear_7_852)"/>
<path d="M368 71L384 71L384 69L368 69L368 71Z" stroke="url(#paint14_linear_7_852)"/>
<path d="M292 257L306 257L306 255L292 255L292 257Z" stroke="url(#paint15_linear_7_852)"/>
<path d="M400 66L415 66L415 64L400 64L400 66Z" stroke="url(#paint16_linear_7_852)"/>
<path d="M400 78L415 78L415 75L400 75L400 78Z" stroke="url(#paint17_linear_7_852)"/>
<path d="M401 95L414 95L414 94L401 94L401 95Z" stroke="url(#paint18_linear_7_852)"/>
<path d="M401 99L414 99L414 88L401 88L401 99Z" stroke="url(#paint19_linear_7_852)"/>
<path d="M401 113L414 113L414 103L401 103L401 113Z" stroke="url(#paint20_linear_7_852)"/>
<path d="M402 151L418 151L418 141L402 141L402 151Z" stroke="url(#paint21_linear_7_852)"/>
<path d="M402 151L418 151L418 153L402 153L402 151Z" stroke="url(#paint22_linear_7_852)"/>
<path d="M402 155L418 155L418 158L402 158L402 155Z" stroke="url(#paint23_linear_7_852)"/>
<path d="M405 162L415 162L415 169L405 169L405 162Z" stroke="url(#paint24_linear_7_852)"/>
<path d="M405 169L415 169L415 172L405 172L405 169Z" stroke="url(#paint25_linear_7_852)"/>
<path d="M403 172L417 172L417 182L403 182L403 172Z" stroke="url(#paint26_linear_7_852)"/>
<path d="M404 182L416 182L416 199L404 199L404 182Z" stroke="url(#paint27_linear_7_852)"/>
<path d="M400 153L420 153L420 155L400 155L400 153Z" stroke="url(#paint28_linear_7_852)"/>
<path d="M404 158L416 158L416 162L404 162L404 158Z" stroke="url(#paint29_linear_7_852)"/>
<path d="M401 113L408 113L408 103L401 103L401 113Z" stroke="url(#paint30_linear_7_852)"/>
<path d="M401 124L408 124L408 114L401 114L401 124Z" stroke="url(#paint31_linear_7_852)"/>
<path d="M401 122L408 122L408 118L401 118L401 122Z" stroke="url(#paint32_linear_7_852)"/>
<path d="M414 106L416 106L416 103L414 103L414 106Z" stroke="url(#paint33_linear_7_852)"/>
<path d="M388 108L401 108L401 103L388 103L388 108Z" stroke="url(#paint34_linear_7_852)"/>
<path d="M388 108L392 108L392 103L388 103L388 108Z" stroke="url(#paint35_linear_7_852)"/>
<path d="M402 87L413 87L413 83L402 83L402 87Z" stroke="url(#paint36_linear_7_852)"/>
<path d="M401 83L414 83L416 79L399 79L401 83Z" stroke="url(#paint37_linear_7_852)"/>
<path d="M415 72L419 72L419 69L415 69L415 72Z" stroke="url(#paint38_linear_7_852)"/>
<path d="M368 49L384 49L384 47L368 47L368 49Z" stroke="url(#paint39_linear_7_852)"/>
<path d="M278 127L423 127L423 125L278 125L278 127Z" fill="#F0F9F5" stroke="url(#paint40_linear_7_852)"/>
<path d="M340 199L394.5 199L398 197L398 193L340 193L340 199Z" stroke="url(#paint41_linear_7_852)"/>
<path d="M340 205L394.5 205L398 203L398 199L340 199L340 205Z" stroke="url(#paint42_linear_7_852)"/>
<path d="M299 127L299 72L297 72L297 127L299 127Z" fill="#F0F9F5" stroke="url(#paint43_linear_7_852)"/>
<path d="M388 125L388 75L387 75L387 125L388 125Z" stroke="url(#paint44_linear_7_852)"/>
<path d="M427 141L427 75L426 75L426 141L427 141Z" stroke="url(#paint45_linear_7_852)"/>
<path d="M292 141L292 132L290 132L290 141L292 141Z" fill="#F0F9F5" stroke="url(#paint46_linear_7_852)"/>
<path d="M366 140L366 72L363 72L363 140L366 140Z" stroke="url(#paint47_linear_7_852)"/>
<path d="M343 83L343 75L340 75L340 83L343 83Z" stroke="url(#paint48_linear_7_852)"/>
<path d="M383 83L383 75L380 75L380 83L383 83Z" stroke="url(#paint49_linear_7_852)"/>
<path d="M303 140L303 72L300 72L300 140L303 140Z" fill="#F0F9F5" stroke="url(#paint50_linear_7_852)"/>
<path d="M340 240L340 170L291 170L291 240L340 240Z" stroke="url(#paint51_linear_7_852)"/>
<path d="M291 202L291 182L284 182L284 195.5L291 202Z" stroke="url(#paint52_linear_7_852)"/>
<path d="M383 69L383 49L370 49L370 69L383 69Z" stroke="url(#paint53_linear_7_852)"/>
<path d="M415 72L415 58L400 58L400 72L415 72Z" stroke="url(#paint54_linear_7_852)"/>
<path d="M296 126L296 109L285 109L285 126L296 126Z" fill="#F0F9F5" stroke="url(#paint55_linear_7_852)"/>
<path d="M142.595 236.653L294.39 87.6251L292.794 86L141 235.028L142.595 236.653Z" fill="#F0F9F5" stroke="url(#paint56_linear_7_852)"/>
<path d="M146.57 270.532L146.57 240.409L126.703 222L125 223.674L144.299 241.524L144.299 270.532L146.57 270.532Z" fill="#F0F9F5" stroke="url(#paint57_linear_7_852)"/>
<path d="M190.57 227.532L190.57 197.409L170.703 179L169 180.674L188.299 198.524L188.299 227.532L190.57 227.532Z" fill="#F0F9F5" stroke="url(#paint58_linear_7_852)"/>
<path d="M234.57 184.532L234.57 154.409L214.703 136L213 137.674L232.299 155.524L232.299 184.532L234.57 184.532Z" fill="#F0F9F5" stroke="url(#paint59_linear_7_852)"/>
<path d="M277.57 141.532L277.57 111.409L257.703 93L256 94.6735L275.299 112.524L275.299 141.532L277.57 141.532Z" fill="#F0F9F5" stroke="url(#paint60_linear_7_852)"/>
<path d="M140.334 285.672L284.5 141L423.5 141L423.5 132L281.5 132L133.5 280.599L133.5 291.309L140.334 291.309L140.334 285.672Z" stroke="url(#paint61_linear_7_852)"/>
<path d="M9.5 239C7.5 235.8 7 232.5 7 231.5H52.5C52.5 232.5 52 235.8 50 239C48 242.2 36.8333 260.667 31.5 269.5H28C22.6667 260.667 11.5 242.2 9.5 239Z" fill="#F0F9F5" stroke="url(#paint62_linear_7_852)"/>
<line y1="231.5" x2="58" y2="231.5" stroke="url(#paint63_linear_7_852)"/>
<line x1="354" y1="240" x2="412" y2="240" stroke="url(#paint64_linear_7_852)"/>
<line x1="18.386" y1="261.682" x2="32.386" y2="278.682" stroke="url(#paint65_linear_7_852)"/>
<path d="M18.6694 274.372L15 277.5" stroke="url(#paint66_linear_7_852)"/>
<path d="M21.6196 277.411L17.5 281" stroke="url(#paint67_linear_7_852)"/>
<path d="M95.2783 220.201L87.6411 211.065C87.2869 210.641 87.3433 210.011 87.767 209.656L87.785 209.641C88.2087 209.287 88.8394 209.343 89.1936 209.767L96.8308 218.903C97.185 219.327 97.1286 219.957 96.7049 220.312L96.6869 220.327C96.2632 220.681 95.6325 220.624 95.2783 220.201Z" fill="#F0F9F5" stroke="url(#paint68_linear_7_852)"/>
<path d="M250.278 95.2007L242.641 86.065C242.287 85.6413 242.343 85.0107 242.767 84.6564L242.785 84.6414C243.209 84.2872 243.839 84.3435 244.194 84.7672L251.831 93.9029C252.185 94.3266 252.129 94.9573 251.705 95.3115L251.687 95.3266C251.263 95.6808 250.633 95.6245 250.278 95.2007Z" fill="#F0F9F5" stroke="url(#paint69_linear_7_852)"/>
<path d="M321.26 42.963L309.642 29.065C309.287 28.6413 309.344 28.0107 309.767 27.6564L309.786 27.6414C310.209 27.2872 310.84 27.3435 311.194 27.7672L322.812 41.6652C323.167 42.0889 323.11 42.7196 322.687 43.0738L322.669 43.0889C322.245 43.4431 321.614 43.3868 321.26 42.963Z" fill="#F0F9F5" stroke="url(#paint70_linear_7_852)"/>
<path d="M321.834 24.8652L313.642 15.065C313.287 14.6413 313.344 14.0107 313.767 13.6564L313.786 13.6414C314.209 13.2872 314.84 13.3435 315.194 13.7672L323.387 23.5674C323.741 23.9911 323.685 24.6217 323.261 24.976L323.243 24.991C322.819 25.3452 322.188 25.2889 321.834 24.8652Z" fill="#F0F9F5" stroke="url(#paint71_linear_7_852)"/>
<path d="M160.941 171.133L152.08 160.534C151.726 160.11 151.782 159.48 152.206 159.125L153.346 158.173C153.769 157.818 154.4 157.875 154.754 158.298L163.615 168.898C163.969 169.321 163.913 169.952 163.489 170.306L162.349 171.259C161.926 171.613 161.295 171.557 160.941 171.133Z" fill="#F0F9F5" stroke="url(#paint72_linear_7_852)"/>
<path d="M288.502 67.6019L279.641 57.0026C279.287 56.5789 279.343 55.9483 279.767 55.594L280.907 54.6414C281.33 54.2872 281.961 54.3435 282.315 54.7672L291.176 65.3665C291.53 65.7902 291.474 66.4208 291.05 66.7751L289.91 67.7277C289.487 68.0819 288.856 68.0256 288.502 67.6019Z" fill="#F0F9F5" stroke="url(#paint73_linear_7_852)"/>
<path d="M321.671 36.5887L308.641 21.0026C308.287 20.5789 308.343 19.9483 308.767 19.594L309.907 18.6414C310.33 18.2872 310.961 18.3435 311.315 18.7672L324.345 34.3533C324.699 34.777 324.643 35.4077 324.219 35.7619L323.079 36.7145C322.655 37.0688 322.025 37.0124 321.671 36.5887Z" fill="#F0F9F5" stroke="url(#paint74_linear_7_852)"/>
<path d="M324.359 34.2328L311.329 18.6467C310.975 18.223 311.031 17.5923 311.455 17.2381L312.595 16.2855C313.018 15.9312 313.649 15.9876 314.003 16.4113L327.033 31.9974C327.387 32.4211 327.331 33.0517 326.907 33.406L325.767 34.3586C325.343 34.7128 324.713 34.6565 324.359 34.2328Z" fill="#F0F9F5" stroke="url(#paint75_linear_7_852)"/>
<path d="M335.151 10.5938L329.641 4.00257C329.287 3.57885 329.343 2.94819 329.767 2.59397L330.907 1.64132C331.33 1.28709 331.961 1.34344 332.315 1.76716L337.825 8.35835C338.179 8.78208 338.123 9.41274 337.699 9.76696L336.56 10.7196C336.136 11.0738 335.505 11.0175 335.151 10.5938Z" fill="#F0F9F5" stroke="url(#paint76_linear_7_852)"/>
<path d="M323.197 23.2354L315.365 13.8661C315.01 13.4424 315.067 12.8117 315.491 12.4575L327.118 2.73746C327.541 2.38324 328.172 2.43958 328.526 2.86331L336.359 12.2326C336.713 12.6563 336.657 13.287 336.233 13.6412L324.606 23.3612C324.182 23.7154 323.551 23.6591 323.197 23.2354Z" fill="#F0F9F5" stroke="url(#paint77_linear_7_852)"/>
<path d="M373 205L403 205L403 210L373 210L373 205Z" stroke="url(#paint78_linear_7_852)"/>
<path d="M368 224L396 224L396 240L368 240L368 224Z" stroke="url(#paint79_linear_7_852)"/>
<path d="M368 224L372 224L372 248L368 248L368 224Z" stroke="url(#paint80_linear_7_852)"/>
<path d="M392 224L396 224L396 248L392 248L392 224Z" stroke="url(#paint81_linear_7_852)"/>
<path d="M392 224L372 224L372 229L392 229L392 224Z" stroke="url(#paint82_linear_7_852)"/>
<path d="M378 217L386 217L396 224L368 224L378 217Z" stroke="url(#paint83_linear_7_852)"/>
<path d="M298 248L418 248L425 255L291 255L298 248Z" stroke="url(#paint84_linear_7_852)"/>
<path d="M55 293L55 237L61 237L61 293L55 293Z" fill="#F0F9F5" stroke="url(#paint85_linear_7_852)"/>
<path d="M363.5 247.5C361.5 244.3 361 241 361 240H406.5C406.5 241 406 244.3 404 247.5C402 250.7 390.833 269.167 385.5 278H382C376.667 269.167 365.5 250.7 363.5 247.5Z" fill="#F0F9F5" stroke="url(#paint86_linear_7_852)"/>
<defs>
<linearGradient id="paint0_linear_7_852" x1="421.5" y1="141" x2="300.017" y2="300.012" gradientUnits="userSpaceOnUse">
<stop stop-color="#36A181"/>
<stop offset="1" stop-color="#EFF9F5"/>
</linearGradient>
<linearGradient id="paint1_linear_7_852" x1="298.5" y1="258" x2="291.047" y2="313.705" gradientUnits="userSpaceOnUse">
<stop stop-color="#36A181"/>
<stop offset="1" stop-color="#EFF9F5"/>
</linearGradient>
<linearGradient id="paint2_linear_7_852" x1="294" y1="240" x2="294" y2="255" gradientUnits="userSpaceOnUse">
<stop stop-color="#36A181"/>
<stop offset="1" stop-color="#EFF9F5"/>
</linearGradient>
<linearGradient id="paint3_linear_7_852" x1="294" y1="141" x2="294" y2="175" gradientUnits="userSpaceOnUse">
<stop stop-color="#36A181"/>
<stop offset="1" stop-color="#EFF9F5"/>
</linearGradient>
<linearGradient id="paint4_linear_7_852" x1="25.1124" y1="269.578" x2="18.8626" y2="274.61" gradientUnits="userSpaceOnUse">
<stop stop-color="#36A181"/>
<stop offset="1" stop-color="#EFF9F5"/>
</linearGradient>
<linearGradient id="paint5_linear_7_852" x1="317.705" y1="36.998" x2="26.6086" y2="271.36" gradientUnits="userSpaceOnUse">
<stop stop-color="#36A181"/>
<stop offset="1" stop-color="#EFF9F5"/>
</linearGradient>
<linearGradient id="paint6_linear_7_852" x1="314.705" y1="32.998" x2="23.4628" y2="267.477" gradientUnits="userSpaceOnUse">
<stop stop-color="#36A181"/>
<stop offset="1" stop-color="#EFF9F5"/>
</linearGradient>
<linearGradient id="paint7_linear_7_852" x1="277.676" y1="127.805" x2="144.805" y2="260.676" gradientUnits="userSpaceOnUse">
<stop stop-color="#36A181"/>
<stop offset="1" stop-color="#EFF9F5"/>
</linearGradient>
<linearGradient id="paint8_linear_7_852" x1="277.592" y1="74.8126" x2="125.798" y2="223.84" gradientUnits="userSpaceOnUse">
<stop stop-color="#36A181"/>
<stop offset="1" stop-color="#EFF9F5"/>
</linearGradient>
<linearGradient id="paint9_linear_7_852" x1="429" y1="100" x2="279" y2="100" gradientUnits="userSpaceOnUse">
<stop stop-color="#36A181"/>
<stop offset="1" stop-color="#EFF9F5"/>
</linearGradient>
<linearGradient id="paint10_linear_7_852" x1="388" y1="144.5" x2="297" y2="144.5" gradientUnits="userSpaceOnUse">
<stop stop-color="#36A181"/>
<stop offset="1" stop-color="#EFF9F5"/>
</linearGradient>
<linearGradient id="paint11_linear_7_852" x1="388" y1="167" x2="297" y2="167" gradientUnits="userSpaceOnUse">
<stop stop-color="#36A181"/>
<stop offset="1" stop-color="#EFF9F5"/>
</linearGradient>
<linearGradient id="paint12_linear_7_852" x1="429" y1="74" x2="265" y2="74" gradientUnits="userSpaceOnUse">
<stop stop-color="#36A181"/>
<stop offset="1" stop-color="#EFF9F5"/>
</linearGradient>
<linearGradient id="paint13_linear_7_852" x1="391" y1="72" x2="276.5" y2="71" gradientUnits="userSpaceOnUse">
<stop stop-color="#36A181"/>
<stop offset="1" stop-color="#EFF9F5"/>
</linearGradient>
<linearGradient id="paint14_linear_7_852" x1="384" y1="70" x2="359.3" y2="76.9984" gradientUnits="userSpaceOnUse">
<stop stop-color="#36A181"/>
<stop offset="1" stop-color="#EFF9F5"/>
</linearGradient>
<linearGradient id="paint15_linear_7_852" x1="306" y1="256" x2="292" y2="256" gradientUnits="userSpaceOnUse">
<stop stop-color="#36A181"/>
<stop offset="1" stop-color="#EFF9F5"/>
</linearGradient>
<linearGradient id="paint16_linear_7_852" x1="415" y1="65" x2="391.633" y2="71.2068" gradientUnits="userSpaceOnUse">
<stop stop-color="#36A181"/>
<stop offset="1" stop-color="#EFF9F5"/>
</linearGradient>
<linearGradient id="paint17_linear_7_852" x1="415" y1="76.5" x2="390.745" y2="80.7951" gradientUnits="userSpaceOnUse">
<stop stop-color="#36A181"/>
<stop offset="1" stop-color="#EFF9F5"/>
</linearGradient>
<linearGradient id="paint18_linear_7_852" x1="414" y1="94.5" x2="396.112" y2="102.736" gradientUnits="userSpaceOnUse">
<stop stop-color="#36A181"/>
<stop offset="1" stop-color="#EFF9F5"/>
</linearGradient>
<linearGradient id="paint19_linear_7_852" x1="414" y1="93.5" x2="392.358" y2="94.4059" gradientUnits="userSpaceOnUse">
<stop stop-color="#36A181"/>
<stop offset="1" stop-color="#EFF9F5"/>
</linearGradient>
<linearGradient id="paint20_linear_7_852" x1="414" y1="108" x2="401" y2="108" gradientUnits="userSpaceOnUse">
<stop stop-color="#36A181"/>
<stop offset="1" stop-color="#EFF9F5"/>
</linearGradient>
<linearGradient id="paint21_linear_7_852" x1="418" y1="146" x2="391.402" y2="147.507" gradientUnits="userSpaceOnUse">
<stop stop-color="#36A181"/>
<stop offset="1" stop-color="#EFF9F5"/>
</linearGradient>
<linearGradient id="paint22_linear_7_852" x1="418" y1="152" x2="393.3" y2="145.002" gradientUnits="userSpaceOnUse">
<stop stop-color="#36A181"/>
<stop offset="1" stop-color="#EFF9F5"/>
</linearGradient>
<linearGradient id="paint23_linear_7_852" x1="418" y1="156.5" x2="392.236" y2="151.633" gradientUnits="userSpaceOnUse">
<stop stop-color="#36A181"/>
<stop offset="1" stop-color="#EFF9F5"/>
</linearGradient>
<linearGradient id="paint24_linear_7_852" x1="415" y1="165.5" x2="398.366" y2="164.658" gradientUnits="userSpaceOnUse">
<stop stop-color="#36A181"/>
<stop offset="1" stop-color="#EFF9F5"/>
</linearGradient>
<linearGradient id="paint25_linear_7_852" x1="415" y1="170.5" x2="398.552" y2="168.558" gradientUnits="userSpaceOnUse">
<stop stop-color="#36A181"/>
<stop offset="1" stop-color="#EFF9F5"/>
</linearGradient>
<linearGradient id="paint26_linear_7_852" x1="417" y1="177" x2="393.709" y2="175.845" gradientUnits="userSpaceOnUse">
<stop stop-color="#36A181"/>
<stop offset="1" stop-color="#EFF9F5"/>
</linearGradient>
<linearGradient id="paint27_linear_7_852" x1="416" y1="190.5" x2="396" y2="190" gradientUnits="userSpaceOnUse">
<stop stop-color="#36A181"/>
<stop offset="1" stop-color="#EFF9F5"/>
</linearGradient>
<linearGradient id="paint28_linear_7_852" x1="420" y1="154" x2="390.363" y2="143.504" gradientUnits="userSpaceOnUse">
<stop stop-color="#36A181"/>
<stop offset="1" stop-color="#EFF9F5"/>
</linearGradient>
<linearGradient id="paint29_linear_7_852" x1="416" y1="160" x2="396.211" y2="157.897" gradientUnits="userSpaceOnUse">
<stop stop-color="#36A181"/>
<stop offset="1" stop-color="#EFF9F5"/>
</linearGradient>
<linearGradient id="paint30_linear_7_852" x1="408" y1="108" x2="401" y2="108" gradientUnits="userSpaceOnUse">
<stop stop-color="#36A181"/>
<stop offset="1" stop-color="#EFF9F5"/>
</linearGradient>
<linearGradient id="paint31_linear_7_852" x1="408" y1="119" x2="401" y2="119" gradientUnits="userSpaceOnUse">
<stop stop-color="#36A181"/>
<stop offset="1" stop-color="#EFF9F5"/>
</linearGradient>
<linearGradient id="paint32_linear_7_852" x1="408" y1="120" x2="401" y2="120" gradientUnits="userSpaceOnUse">
<stop stop-color="#36A181"/>
<stop offset="1" stop-color="#EFF9F5"/>
</linearGradient>
<linearGradient id="paint33_linear_7_852" x1="416" y1="104.5" x2="414" y2="104.5" gradientUnits="userSpaceOnUse">
<stop stop-color="#36A181"/>
<stop offset="1" stop-color="#EFF9F5"/>
</linearGradient>
<linearGradient id="paint34_linear_7_852" x1="401" y1="105.5" x2="388" y2="105.5" gradientUnits="userSpaceOnUse">
<stop stop-color="#36A181"/>
<stop offset="1" stop-color="#EFF9F5"/>
</linearGradient>
<linearGradient id="paint35_linear_7_852" x1="392" y1="105.5" x2="388" y2="105.5" gradientUnits="userSpaceOnUse">
<stop stop-color="#36A181"/>
<stop offset="1" stop-color="#EFF9F5"/>
</linearGradient>
<linearGradient id="paint36_linear_7_852" x1="413" y1="85" x2="394.828" y2="86.7699" gradientUnits="userSpaceOnUse">
<stop stop-color="#36A181"/>
<stop offset="1" stop-color="#EFF9F5"/>
</linearGradient>
<linearGradient id="paint37_linear_7_852" x1="416" y1="81" x2="388.277" y2="85.1729" gradientUnits="userSpaceOnUse">
<stop stop-color="#36A181"/>
<stop offset="1" stop-color="#EFF9F5"/>
</linearGradient>
<linearGradient id="paint38_linear_7_852" x1="419" y1="70.5" x2="412.344" y2="70.8143" gradientUnits="userSpaceOnUse">
<stop stop-color="#36A181"/>
<stop offset="1" stop-color="#EFF9F5"/>
</linearGradient>
<linearGradient id="paint39_linear_7_852" x1="384" y1="48" x2="359.3" y2="54.9984" gradientUnits="userSpaceOnUse">
<stop stop-color="#36A181"/>
<stop offset="1" stop-color="#EFF9F5"/>
</linearGradient>
<linearGradient id="paint40_linear_7_852" x1="423" y1="126" x2="278" y2="126" gradientUnits="userSpaceOnUse">
<stop stop-color="#36A181"/>
<stop offset="1" stop-color="#EFF9F5"/>
</linearGradient>
<linearGradient id="paint41_linear_7_852" x1="398" y1="196" x2="340" y2="196" gradientUnits="userSpaceOnUse">
<stop stop-color="#36A181"/>
<stop offset="1" stop-color="#EFF9F5"/>
</linearGradient>
<linearGradient id="paint42_linear_7_852" x1="398" y1="202" x2="340" y2="202" gradientUnits="userSpaceOnUse">
<stop stop-color="#36A181"/>
<stop offset="1" stop-color="#EFF9F5"/>
</linearGradient>
<linearGradient id="paint43_linear_7_852" x1="298" y1="72" x2="298" y2="127" gradientUnits="userSpaceOnUse">
<stop stop-color="#36A181"/>
<stop offset="1" stop-color="#EFF9F5"/>
</linearGradient>
<linearGradient id="paint44_linear_7_852" x1="387.5" y1="75" x2="423.203" y2="95.1617" gradientUnits="userSpaceOnUse">
<stop stop-color="#36A181"/>
<stop offset="1" stop-color="#EFF9F5"/>
</linearGradient>
<linearGradient id="paint45_linear_7_852" x1="426.5" y1="75" x2="466.303" y2="92.0283" gradientUnits="userSpaceOnUse">
<stop stop-color="#36A181"/>
<stop offset="1" stop-color="#EFF9F5"/>
</linearGradient>
<linearGradient id="paint46_linear_7_852" x1="291" y1="132" x2="291" y2="141" gradientUnits="userSpaceOnUse">
<stop stop-color="#36A181"/>
<stop offset="1" stop-color="#EFF9F5"/>
</linearGradient>
<linearGradient id="paint47_linear_7_852" x1="364.5" y1="72" x2="419.861" y2="140.962" gradientUnits="userSpaceOnUse">
<stop stop-color="#36A181"/>
<stop offset="1" stop-color="#EFF9F5"/>
</linearGradient>
<linearGradient id="paint48_linear_7_852" x1="341.5" y1="75" x2="342.749" y2="88.2237" gradientUnits="userSpaceOnUse">
<stop stop-color="#36A181"/>
<stop offset="1" stop-color="#EFF9F5"/>
</linearGradient>
<linearGradient id="paint49_linear_7_852" x1="381.5" y1="75" x2="382.749" y2="88.2237" gradientUnits="userSpaceOnUse">
<stop stop-color="#36A181"/>
<stop offset="1" stop-color="#EFF9F5"/>
</linearGradient>
<linearGradient id="paint50_linear_7_852" x1="301.5" y1="72" x2="301.5" y2="140" gradientUnits="userSpaceOnUse">
<stop stop-color="#36A181"/>
<stop offset="1" stop-color="#EFF9F5"/>
</linearGradient>
<linearGradient id="paint51_linear_7_852" x1="315.5" y1="170" x2="314" y2="256" gradientUnits="userSpaceOnUse">
<stop stop-color="#36A181"/>
<stop offset="1" stop-color="#EFF9F5"/>
</linearGradient>
<linearGradient id="paint52_linear_7_852" x1="287.5" y1="182" x2="287.5" y2="202" gradientUnits="userSpaceOnUse">
<stop stop-color="#36A181"/>
<stop offset="1" stop-color="#EFF9F5"/>
</linearGradient>
<linearGradient id="paint53_linear_7_852" x1="376.5" y1="49" x2="378.312" y2="82.2554" gradientUnits="userSpaceOnUse">
<stop stop-color="#36A181"/>
<stop offset="1" stop-color="#EFF9F5"/>
</linearGradient>
<linearGradient id="paint54_linear_7_852" x1="407.5" y1="58" x2="408.271" y2="81.3224" gradientUnits="userSpaceOnUse">
<stop stop-color="#36A181"/>
<stop offset="1" stop-color="#EFF9F5"/>
</linearGradient>
<linearGradient id="paint55_linear_7_852" x1="290.5" y1="109" x2="290.5" y2="126" gradientUnits="userSpaceOnUse">
<stop stop-color="#36A181"/>
<stop offset="1" stop-color="#EFF9F5"/>
</linearGradient>
<linearGradient id="paint56_linear_7_852" x1="293.592" y1="86.8126" x2="141.798" y2="235.84" gradientUnits="userSpaceOnUse">
<stop stop-color="#36A181"/>
<stop offset="1" stop-color="#EFF9F5"/>
</linearGradient>
<linearGradient id="paint57_linear_7_852" x1="145.435" y1="240.409" x2="145.435" y2="270.532" gradientUnits="userSpaceOnUse">
<stop stop-color="#36A181"/>
<stop offset="1" stop-color="#EFF9F5"/>
</linearGradient>
<linearGradient id="paint58_linear_7_852" x1="189.435" y1="197.409" x2="189.435" y2="227.532" gradientUnits="userSpaceOnUse">
<stop stop-color="#36A181"/>
<stop offset="1" stop-color="#EFF9F5"/>
</linearGradient>
<linearGradient id="paint59_linear_7_852" x1="233.435" y1="154.409" x2="233.435" y2="184.532" gradientUnits="userSpaceOnUse">
<stop stop-color="#36A181"/>
<stop offset="1" stop-color="#EFF9F5"/>
</linearGradient>
<linearGradient id="paint60_linear_7_852" x1="276.435" y1="111.409" x2="276.435" y2="141.532" gradientUnits="userSpaceOnUse">
<stop stop-color="#36A181"/>
<stop offset="1" stop-color="#EFF9F5"/>
</linearGradient>
<linearGradient id="paint61_linear_7_852" x1="250.892" y1="175.196" x2="116.676" y2="298.855" gradientUnits="userSpaceOnUse">
<stop stop-color="#36A181"/>
<stop offset="1" stop-color="#EFF9F5"/>
</linearGradient>
<linearGradient id="paint62_linear_7_852" x1="30" y1="232" x2="30" y2="277" gradientUnits="userSpaceOnUse">
<stop stop-color="#36A181"/>
<stop offset="1" stop-color="#EFF9F5"/>
</linearGradient>
<linearGradient id="paint63_linear_7_852" x1="0" y1="232.5" x2="58" y2="232.5" gradientUnits="userSpaceOnUse">
<stop stop-color="#F0FAF6"/>
<stop offset="0.360318" stop-color="#37A282"/>
<stop offset="0.666029" stop-color="#37A282"/>
<stop offset="1" stop-color="#F0FAF6"/>
</linearGradient>
<linearGradient id="paint64_linear_7_852" x1="354" y1="241" x2="412" y2="241" gradientUnits="userSpaceOnUse">
<stop stop-color="#F0FAF6"/>
<stop offset="0.360318" stop-color="#37A282"/>
<stop offset="0.666029" stop-color="#37A282"/>
<stop offset="1" stop-color="#F0FAF6"/>
</linearGradient>
<linearGradient id="paint65_linear_7_852" x1="17.614" y1="262.318" x2="31.614" y2="279.318" gradientUnits="userSpaceOnUse">
<stop stop-color="#F0FAF6"/>
<stop offset="0.360318" stop-color="#37A282"/>
<stop offset="0.666029" stop-color="#37A282"/>
<stop offset="1" stop-color="#F0FAF6"/>
</linearGradient>
<linearGradient id="paint66_linear_7_852" x1="18.0006" y1="273.628" x2="14.6656" y2="276.628" gradientUnits="userSpaceOnUse">
<stop stop-color="#F0FAF6"/>
<stop offset="0.360318" stop-color="#37A282"/>
<stop offset="0.666029" stop-color="#37A282"/>
</linearGradient>
<linearGradient id="paint67_linear_7_852" x1="21.0504" y1="276.589" x2="16.7155" y2="279.589" gradientUnits="userSpaceOnUse">
<stop stop-color="#F0FAF6"/>
<stop offset="0.360318" stop-color="#37A282"/>
<stop offset="0.666029" stop-color="#37A282"/>
</linearGradient>
<linearGradient id="paint68_linear_7_852" x1="87.776" y1="209.649" x2="96.6959" y2="220.319" gradientUnits="userSpaceOnUse">
<stop stop-color="#36A181"/>
<stop offset="1" stop-color="#EFF9F5"/>
</linearGradient>
<linearGradient id="paint69_linear_7_852" x1="242.776" y1="84.6489" x2="251.696" y2="95.319" gradientUnits="userSpaceOnUse">
<stop stop-color="#36A181"/>
<stop offset="1" stop-color="#EFF9F5"/>
</linearGradient>
<linearGradient id="paint70_linear_7_852" x1="309.776" y1="27.6489" x2="325" y2="46" gradientUnits="userSpaceOnUse">
<stop stop-color="#36A181"/>
<stop offset="1" stop-color="#EFF9F5"/>
</linearGradient>
<linearGradient id="paint71_linear_7_852" x1="313.776" y1="13.6489" x2="323.252" y2="24.9835" gradientUnits="userSpaceOnUse">
<stop stop-color="#36A181"/>
<stop offset="1" stop-color="#EFF9F5"/>
</linearGradient>
<linearGradient id="paint72_linear_7_852" x1="152.776" y1="158.649" x2="162.919" y2="170.783" gradientUnits="userSpaceOnUse">
<stop stop-color="#36A181"/>
<stop offset="1" stop-color="#EFF9F5"/>
</linearGradient>
<linearGradient id="paint73_linear_7_852" x1="280.337" y1="55.1177" x2="290.48" y2="67.2514" gradientUnits="userSpaceOnUse">
<stop stop-color="#36A181"/>
<stop offset="1" stop-color="#EFF9F5"/>
</linearGradient>
<linearGradient id="paint74_linear_7_852" x1="309.337" y1="19.1177" x2="325.5" y2="39" gradientUnits="userSpaceOnUse">
<stop stop-color="#36A181"/>
<stop offset="1" stop-color="#EFF9F5"/>
</linearGradient>
<linearGradient id="paint75_linear_7_852" x1="312.337" y1="16.1177" x2="328.5" y2="38" gradientUnits="userSpaceOnUse">
<stop stop-color="#36A181"/>
<stop offset="1" stop-color="#EFF9F5"/>
</linearGradient>
<linearGradient id="paint76_linear_7_852" x1="330.748" y1="1.59209" x2="340" y2="13.5" gradientUnits="userSpaceOnUse">
<stop stop-color="#36A181"/>
<stop offset="1" stop-color="#EFF9F5"/>
</linearGradient>
<linearGradient id="paint77_linear_7_852" x1="323.648" y1="5.39401" x2="338" y2="23" gradientUnits="userSpaceOnUse">
<stop stop-color="#36A181"/>
<stop offset="1" stop-color="#EFF9F5"/>
</linearGradient>
<linearGradient id="paint78_linear_7_852" x1="403" y1="207.5" x2="364.5" y2="208" gradientUnits="userSpaceOnUse">
<stop stop-color="#36A181"/>
<stop offset="1" stop-color="#EFF9F5"/>
</linearGradient>
<linearGradient id="paint79_linear_7_852" x1="396" y1="232" x2="368" y2="232" gradientUnits="userSpaceOnUse">
<stop stop-color="#36A181"/>
<stop offset="1" stop-color="#EFF9F5"/>
</linearGradient>
<linearGradient id="paint80_linear_7_852" x1="369" y1="222" x2="368" y2="257.5" gradientUnits="userSpaceOnUse">
<stop stop-color="#36A181"/>
<stop offset="1" stop-color="#EFF9F5"/>
</linearGradient>
<linearGradient id="paint81_linear_7_852" x1="396" y1="236" x2="392" y2="236" gradientUnits="userSpaceOnUse">
<stop stop-color="#36A181"/>
<stop offset="1" stop-color="#EFF9F5"/>
</linearGradient>
<linearGradient id="paint82_linear_7_852" x1="372" y1="226.5" x2="392" y2="226.5" gradientUnits="userSpaceOnUse">
<stop stop-color="#36A181"/>
<stop offset="1" stop-color="#EFF9F5"/>
</linearGradient>
<linearGradient id="paint83_linear_7_852" x1="382" y1="211" x2="379.5" y2="231.5" gradientUnits="userSpaceOnUse">
<stop stop-color="#36A181"/>
<stop offset="1" stop-color="#EFF9F5"/>
</linearGradient>
<linearGradient id="paint84_linear_7_852" x1="425" y1="251.5" x2="271.9" y2="147.702" gradientUnits="userSpaceOnUse">
<stop stop-color="#36A181"/>
<stop offset="1" stop-color="#EFF9F5"/>
</linearGradient>
<linearGradient id="paint85_linear_7_852" x1="58" y1="237" x2="30.1698" y2="321.192" gradientUnits="userSpaceOnUse">
<stop stop-color="#36A181"/>
<stop offset="1" stop-color="#EFF9F5"/>
</linearGradient>
<linearGradient id="paint86_linear_7_852" x1="384" y1="240.5" x2="384" y2="285.5" gradientUnits="userSpaceOnUse">
<stop stop-color="#36A181"/>
<stop offset="1" stop-color="#EFF9F5"/>
</linearGradient>
</defs>
</svg>
