<svg width="555" height="130" viewBox="0 0 555 130" fill="none" xmlns="http://www.w3.org/2000/svg">
<path d="M19.6743 121.325H62.8599V115.401L19.6743 115.401V121.325Z" fill="#F0F9F5" stroke="url(#paint0_linear_7_10)"/>
<path d="M19.6743 115.401H62.8599V110.151H19.6743V115.401Z" fill="#F0F9F5" stroke="url(#paint1_linear_7_10)"/>
<path d="M71.4935 110.179H106.362M106.362 110.179L108.895 115.828M106.362 110.179L108.388 108.157M205.904 10.8314L208.242 12.1951L214.476 6.3511L218.956 10.8314L217.592 12.1951M205.904 10.8314L201.294 15.4328M205.904 10.8314L215.879 0.913696L225.056 8.64869V31.8537H214.476L208.242 25.5776M217.592 12.1951L218.956 14.9222L213.393 20.4543M217.592 12.1951L210.897 17.7397L213.393 20.4543M69.1558 121.282H104.688M69.1558 115.828H101.952M108.895 115.828H101.952M108.895 115.828L112.011 112.718M203.372 21.5454L198.983 17.7397M203.372 21.5454L208.242 25.5776M203.372 21.5454L112.011 112.718M198.983 17.7397L201.294 15.4328M198.983 17.7397L108.388 108.157M208.242 25.5776L112.011 121.282H104.688M208.242 25.5776L209.909 23.9195M201.294 15.4328L209.909 23.9195M209.909 23.9195L213.393 20.4543M101.952 115.828L104.688 121.282M108.388 108.157L112.011 112.718" stroke="url(#paint2_linear_7_10)"/>
<path d="M188.097 124.37H191.856V41.802L188.097 45.6881V124.37Z" fill="#F0F9F5" stroke="url(#paint3_linear_7_10)"/>
<rect width="67.9355" height="5.71704" transform="matrix(-1 0 0 1 522.892 103.81)" fill="#F0F9F5" stroke="url(#paint4_linear_7_10)"/>
<path d="M446.026 81.9609V87.6383H453.227M499.061 90.9616V87.6383H488.676M499.061 90.9616L473.998 103.84L467.345 93.731M499.061 90.9616L503.769 92.4848C505.708 91.7001 509.973 89.8538 511.524 88.746C513.075 87.6383 513.462 83.7611 513.462 81.9609L523.155 101.624M453.227 81.9609V87.6383M453.227 87.6383H463.335M453.227 87.6383V93.731M463.335 81.9609V87.6383M463.335 87.6383H488.676M463.335 87.6383L467.345 93.731M488.676 81.9609V87.6383M523.155 101.624L521.355 103.84M523.155 101.624L523.848 81.9609C524.494 84.7765 526.506 90.3523 529.387 90.1308C532.267 89.9092 532.525 84.5919 532.295 81.9609M535.203 75.3142H548.911V78.3606H535.203V81.9609H554.45V79.1914H548.911M455.719 97.0544L453.227 95.9466V93.731M455.719 97.0544V103.84H460.012V97.0544H455.719ZM453.227 93.731H467.345" stroke="url(#paint5_linear_7_10)"/>
<rect x="133.131" y="120.692" width="54.9653" height="1.85828" fill="#F0F9F5" stroke="url(#paint6_linear_7_10)"/>
<rect width="5.3916" height="37.8951" transform="matrix(-1 0 0 1 218.807 91.5995)" fill="#F0F9F5" stroke="url(#paint7_linear_7_10)"/>
<rect width="210.542" height="6.0321" transform="matrix(-1 0 0 1 423.958 102.4)" fill="#F0F9F5" stroke="url(#paint8_linear_7_10)"/>
<rect width="227.652" height="5.19946" transform="matrix(-1 0 0 1 423.958 59.4788)" fill="#F0F9F5" stroke="url(#paint9_linear_7_10)"/>
<rect width="60.6987" height="5.19946" transform="matrix(-1 0 0 1 258.767 64.6782)" fill="#F0F9F5" stroke="url(#paint10_linear_7_10)"/>
<rect width="1.6333" height="5.12451" transform="matrix(-1 0 0 1 132.006 124.37)" fill="#F0F9F5" stroke="url(#paint11_linear_7_10)"/>
<rect width="1.6333" height="5.12451" transform="matrix(-1 0 0 1 190.793 124.37)" fill="#F0F9F5" stroke="url(#paint12_linear_7_10)"/>
<path d="M206.678 69.975L216.248 88.0889H257.773M257.773 88.0889V69.975M257.773 88.0889H286.995M257.773 88.0889V96.9749M257.773 102.102V96.9749M286.995 88.0889V96.9749M286.995 88.0889V69.975M257.773 96.9749H286.995M286.995 96.9749V102.956M247.178 69.975V74.7598H253.159V69.975M324.077 69.975L334.33 91.3357M339.115 69.975V86.0383M339.115 102.102V96.9749M367.994 69.975V86.0383M367.994 102.102V96.9749M339.115 86.0383H367.994M339.115 86.0383V96.9749M367.994 86.0383V96.9749M339.115 96.9749H367.994M414.133 69.975L426.266 91.3357V64.8486M426.266 64.8486V59.8928L452.582 63.6524L453.95 68.4372L449.336 69.975L426.266 64.8486Z" stroke="url(#paint13_linear_7_10)"/>
<rect width="53.5171" height="5.19946" transform="matrix(-1 0 0 1 339.554 64.6782)" fill="#F0F9F5" stroke="url(#paint14_linear_7_10)"/>
<rect width="56.1831" height="5.19946" transform="matrix(-1 0 0 1 423.958 64.6782)" fill="#F0F9F5" stroke="url(#paint15_linear_7_10)"/>
<rect width="5.3916" height="37.8951" transform="matrix(-1 0 0 1 335.738 91.5995)" fill="#F0F9F5" stroke="url(#paint16_linear_7_10)"/>
<rect width="5.3916" height="37.8951" transform="matrix(-1 0 0 1 426.684 91.5995)" fill="#F0F9F5" stroke="url(#paint17_linear_7_10)"/>
<rect width="5.3916" height="25.6842" transform="matrix(-1 0 0 1 460.348 103.81)" fill="#F0F9F5" stroke="url(#paint18_linear_7_10)"/>
<rect width="5.3916" height="25.6842" transform="matrix(-1 0 0 1 522.892 103.81)" fill="#F0F9F5" stroke="url(#paint19_linear_7_10)"/>
<rect width="90.4165" height="6.57153" transform="matrix(-1 0 0 1 535.291 74.8528)" fill="#F0F9F5" stroke="url(#paint20_linear_7_10)"/>
<path d="M71.1772 113.841H61.0972V106.46L71.1772 106.46V113.841Z" fill="#F0F9F5" stroke="url(#paint21_linear_7_10)"/>
<path d="M27.9917 113.841H17.9116V106.46L27.9917 106.46V113.841Z" fill="#F0F9F5" stroke="url(#paint22_linear_7_10)"/>
<path d="M0.854004 121.325H3.94727L3.94727 115.401L0.854004 115.401L0.854004 121.325Z" fill="#F0F9F5" stroke="url(#paint23_linear_7_10)"/>
<path d="M19.6743 121.325H3.94727L3.94727 115.401L19.6743 115.401V121.325Z" fill="#F0F9F5" stroke="url(#paint24_linear_7_10)"/>
<path d="M0.854004 115.401H3.94727L3.94727 110.151H0.854004L0.854004 115.401Z" fill="#F0F9F5" stroke="url(#paint25_linear_7_10)"/>
<path d="M19.6743 115.401H3.94727L3.94727 110.151H19.6743V115.401Z" fill="#F0F9F5" stroke="url(#paint26_linear_7_10)"/>
<path d="M53.6069 111.71H28.8706V106.46H53.6069V111.71Z" fill="#F0F9F5" stroke="url(#paint27_linear_7_10)"/>
<path d="M129.247 124.37H133.006V100.336L129.247 104.222V124.37Z" fill="#F0F9F5" stroke="url(#paint28_linear_7_10)"/>
<defs>
<linearGradient id="paint0_linear_7_10" x1="47.8975" y1="114.655" x2="47.8717" y2="123.848" gradientUnits="userSpaceOnUse">
<stop stop-color="#36A181"/>
<stop offset="1" stop-color="#EFF9F5"/>
</linearGradient>
<linearGradient id="paint1_linear_7_10" x1="47.8975" y1="109.489" x2="47.8772" y2="117.637" gradientUnits="userSpaceOnUse">
<stop stop-color="#36A181"/>
<stop offset="1" stop-color="#EFF9F5"/>
</linearGradient>
<linearGradient id="paint2_linear_7_10" x1="144.879" y1="7.86333" x2="144.607" y2="161.853" gradientUnits="userSpaceOnUse">
<stop stop-color="#36A181"/>
<stop offset="1" stop-color="#EFF9F5"/>
</linearGradient>
<linearGradient id="paint3_linear_7_10" x1="190.553" y1="101.119" x2="186.998" y2="132.765" gradientUnits="userSpaceOnUse">
<stop stop-color="#36A181"/>
<stop offset="1" stop-color="#EFF9F5"/>
</linearGradient>
<linearGradient id="paint4_linear_7_10" x1="23.5375" y1="0.18621" x2="23.5487" y2="7.80898" gradientUnits="userSpaceOnUse">
<stop stop-color="#36A181"/>
<stop offset="1" stop-color="#EFF9F5"/>
</linearGradient>
<linearGradient id="paint5_linear_7_10" x1="498.69" y1="76.9612" x2="498.668" y2="113.454" gradientUnits="userSpaceOnUse">
<stop stop-color="#36A181"/>
<stop offset="1" stop-color="#EFF9F5"/>
</linearGradient>
<linearGradient id="paint6_linear_7_10" x1="152.175" y1="120.752" x2="152.177" y2="123.23" gradientUnits="userSpaceOnUse">
<stop stop-color="#36A181"/>
<stop offset="1" stop-color="#EFF9F5"/>
</linearGradient>
<linearGradient id="paint7_linear_7_10" x1="1.86802" y1="1.23428" x2="8.01479" y2="51.0024" gradientUnits="userSpaceOnUse">
<stop stop-color="#36A181"/>
<stop offset="1" stop-color="#EFF9F5"/>
</linearGradient>
<linearGradient id="paint8_linear_7_10" x1="72.9462" y1="0.196472" x2="72.9502" y2="8.23935" gradientUnits="userSpaceOnUse">
<stop stop-color="#36A181"/>
<stop offset="1" stop-color="#EFF9F5"/>
</linearGradient>
<linearGradient id="paint9_linear_7_10" x1="78.8742" y1="0.169352" x2="78.877" y2="7.10203" gradientUnits="userSpaceOnUse">
<stop stop-color="#36A181"/>
<stop offset="1" stop-color="#EFF9F5"/>
</linearGradient>
<linearGradient id="paint10_linear_7_10" x1="21.0301" y1="0.169352" x2="21.0406" y2="7.10202" gradientUnits="userSpaceOnUse">
<stop stop-color="#36A181"/>
<stop offset="1" stop-color="#EFF9F5"/>
</linearGradient>
<linearGradient id="paint11_linear_7_10" x1="0.565886" y1="0.166911" x2="0.941458" y2="6.97895" gradientUnits="userSpaceOnUse">
<stop stop-color="#36A181"/>
<stop offset="1" stop-color="#EFF9F5"/>
</linearGradient>
<linearGradient id="paint12_linear_7_10" x1="0.565886" y1="0.166911" x2="0.941458" y2="6.97895" gradientUnits="userSpaceOnUse">
<stop stop-color="#36A181"/>
<stop offset="1" stop-color="#EFF9F5"/>
</linearGradient>
<linearGradient id="paint13_linear_7_10" x1="326.782" y1="62.3791" x2="326.76" y2="117.471" gradientUnits="userSpaceOnUse">
<stop stop-color="#36A181"/>
<stop offset="1" stop-color="#EFF9F5"/>
</linearGradient>
<linearGradient id="paint14_linear_7_10" x1="18.5419" y1="0.169352" x2="18.5538" y2="7.10201" gradientUnits="userSpaceOnUse">
<stop stop-color="#36A181"/>
<stop offset="1" stop-color="#EFF9F5"/>
</linearGradient>
<linearGradient id="paint15_linear_7_10" x1="19.4656" y1="0.169352" x2="19.4769" y2="7.10201" gradientUnits="userSpaceOnUse">
<stop stop-color="#36A181"/>
<stop offset="1" stop-color="#EFF9F5"/>
</linearGradient>
<linearGradient id="paint16_linear_7_10" x1="1.86802" y1="1.23428" x2="8.01479" y2="51.0024" gradientUnits="userSpaceOnUse">
<stop stop-color="#36A181"/>
<stop offset="1" stop-color="#EFF9F5"/>
</linearGradient>
<linearGradient id="paint17_linear_7_10" x1="1.86802" y1="1.23428" x2="8.01479" y2="51.0024" gradientUnits="userSpaceOnUse">
<stop stop-color="#36A181"/>
<stop offset="1" stop-color="#EFF9F5"/>
</linearGradient>
<linearGradient id="paint18_linear_7_10" x1="1.86802" y1="0.836561" x2="4.7148" y2="34.8442" gradientUnits="userSpaceOnUse">
<stop stop-color="#36A181"/>
<stop offset="1" stop-color="#EFF9F5"/>
</linearGradient>
<linearGradient id="paint19_linear_7_10" x1="1.86802" y1="0.836561" x2="4.7148" y2="34.8442" gradientUnits="userSpaceOnUse">
<stop stop-color="#36A181"/>
<stop offset="1" stop-color="#EFF9F5"/>
</linearGradient>
<linearGradient id="paint20_linear_7_10" x1="31.3264" y1="0.214042" x2="31.3376" y2="8.97615" gradientUnits="userSpaceOnUse">
<stop stop-color="#36A181"/>
<stop offset="1" stop-color="#EFF9F5"/>
</linearGradient>
<linearGradient id="paint21_linear_7_10" x1="64.5896" y1="105.53" x2="64.7611" y2="116.983" gradientUnits="userSpaceOnUse">
<stop stop-color="#36A181"/>
<stop offset="1" stop-color="#EFF9F5"/>
</linearGradient>
<linearGradient id="paint22_linear_7_10" x1="21.404" y1="105.53" x2="21.5756" y2="116.983" gradientUnits="userSpaceOnUse">
<stop stop-color="#36A181"/>
<stop offset="1" stop-color="#EFF9F5"/>
</linearGradient>
<linearGradient id="paint23_linear_7_10" x1="2.87555" y1="114.655" x2="2.51601" y2="123.834" gradientUnits="userSpaceOnUse">
<stop stop-color="#36A181"/>
<stop offset="1" stop-color="#EFF9F5"/>
</linearGradient>
<linearGradient id="paint24_linear_7_10" x1="9.39618" y1="114.655" x2="9.467" y2="123.847" gradientUnits="userSpaceOnUse">
<stop stop-color="#36A181"/>
<stop offset="1" stop-color="#EFF9F5"/>
</linearGradient>
<linearGradient id="paint25_linear_7_10" x1="2.87555" y1="109.489" x2="2.59304" y2="117.627" gradientUnits="userSpaceOnUse">
<stop stop-color="#36A181"/>
<stop offset="1" stop-color="#EFF9F5"/>
</linearGradient>
<linearGradient id="paint26_linear_7_10" x1="9.39618" y1="109.489" x2="9.4518" y2="117.637" gradientUnits="userSpaceOnUse">
<stop stop-color="#36A181"/>
<stop offset="1" stop-color="#EFF9F5"/>
</linearGradient>
<linearGradient id="paint27_linear_7_10" x1="37.4409" y1="105.798" x2="37.4763" y2="113.946" gradientUnits="userSpaceOnUse">
<stop stop-color="#36A181"/>
<stop offset="1" stop-color="#EFF9F5"/>
</linearGradient>
<linearGradient id="paint28_linear_7_10" x1="131.704" y1="101.119" x2="128.148" y2="132.765" gradientUnits="userSpaceOnUse">
<stop stop-color="#36A181"/>
<stop offset="1" stop-color="#EFF9F5"/>
</linearGradient>
</defs>
</svg>
